<!--?xml version="1.0" encoding="utf-8"?-->
<!-- Generator: Adobe Illustrator 18.1.1, SVG Export Plug-In . SVG Version: 6.00 Build 0)  -->

<svg version="1.1" id="_x32_" xmlns="http://www.w3.org/2000/svg" xmlns:xlink="http://www.w3.org/1999/xlink" x="0px" y="0px" viewBox="0 0 512 512" style="width: 256px; height: 256px; opacity: 1;" xml:space="preserve">
<style type="text/css">
	.st0{fill:#4B4B4B;}
</style>
<g>
	<path class="st0" d="M437.426,138.577c-14.821,0-23.369,4.546-30.958,10.621c-8.352-10.63-28.43-20.558-41.828-20.558
		c-13.397,0-25.682,4.928-35.11,13.059c-9.715-9.518-23.014-15.407-37.656-15.407c-7.864,0-15.346,1.708-22.088,4.75V53.801
		C269.787,24.134,245.652,0,215.985,0c-29.667,0-53.801,24.134-53.801,53.801v191.871c-13.014-17.783-27.247-37.006-34.943-46.587
		c-1.744-2.384-3.496-4.243-4.697-5.506l-0.009,0.018l-0.124-0.134l0.017-0.017l-0.756-0.774l-0.045-0.045l-0.293-0.302
		c-5.729-5.88-10.862-10.078-16.617-13.636c-4.323-2.634-8.514-4.573-12.952-6.031c-5.587-1.824-11.351-2.749-17.115-2.749H74.41
		l-0.666,0.009c-16.706,0.249-32.087,8.077-42.158,21.474c-10.078,13.423-13.308,30.396-8.86,46.569
		c2.135,7.579,6.877,19.277,14.135,34.898c10.471,22.506,26.465,51.301,55.216,99.408c25.006,41.89,48.17,65.188,84.766,95.985
		C209.411,495.641,259.771,512,311.579,512c84.402,0,148.932-41.934,168.386-109.452c5.818-20.167,11.209-41.596,11.262-61.728
		v-6.324v-6.245V192.378C491.227,162.711,467.093,138.577,437.426,138.577z M311.579,483.926
		c-44.381,0-88.726-13.656-116.668-37.157c-32.95-27.728-54.753-48.732-78.744-88.895c-29.48-49.354-44.265-76.263-53.846-96.848
		c-9.581-20.612-11.92-28.368-12.525-30.512c-2.126-7.704-0.57-15.87,4.225-22.257c4.813-6.396,12.214-10.159,20.193-10.275h0.436
		c3.069,0,5.916,0.552,8.406,1.37c2.598,0.846,4.84,1.966,6.921,3.23c3.87,2.384,7.304,5.284,11.271,9.35l-0.035-0.045l0.916,0.961
		c2.259,2.384,3.024,3.22,3.024,3.22c-0.009,0-1.29-1.37-2.402-2.544c10.355,11.724,63.605,85.692,63.605,85.692
		c2.544,3.434,6.52,5.355,10.631,5.355c1.396,0,2.802-0.222,4.18-0.676c5.426-1.788,9.092-6.877,9.092-12.596v-44.132V53.801
		c0-14.207,11.519-25.735,25.726-25.735c14.207,0,25.735,11.528,25.735,25.735v154.367v36.418c0,26.047,24.303,47.139,50.35,47.148
		c14.864-0.008,27.95-7.019,36.579-17.765c8.62,10.515,21.536,17.374,36.206,17.374c14.767,0,27.736-6.948,36.303-17.605
		c8.514,10.595,21.412,17.507,36.054,17.507c9.608,0,18.539-2.918,25.94-7.917v44.923c0,0.018,0,1.708,0,6.245
		c0,1.672,0,3.718,0,6.235c-0.045,15.977-4.412,34.107-10.159,54.042C434.873,457.621,373.181,483.926,311.579,483.926z
		 M291.875,154.366c14.206,0,25.726,11.52,25.726,25.727v28.074v36.206v0.213c-0.026,14.261-11.289,25.808-25.53,25.834
		c-14.278-0.026-25.815-11.573-25.843-25.834v-44.602h-0.088v-19.891C266.14,165.886,277.668,154.366,291.875,154.366z
		 M390.376,208.168v36.206c-0.026,14.162-11.368,25.628-25.521,25.655c-14.171-0.026-25.913-11.493-25.94-25.655v-44.389v-17.542
		c0-14.216,11.521-25.735,25.726-25.735c14.216,0,25.735,11.519,25.735,25.735V208.168z M463.152,244.809h-0.267
		c-0.018,14.189-11.493,25.664-25.674,25.691c-13.983-0.027-25.29-11.2-25.62-25.113c0-0.346,0.098-0.667,0.098-1.014v-44.389
		v-16.662c0-14.207,11.529-16.671,25.736-16.671c14.206,0,25.726,11.52,25.726,25.726V244.809z" style="fill: rgb(39, 39, 39);"></path>
</g>
</svg>
